<?xml version="1.0" encoding="UTF-8" ?>
<svg version="1.1" width="16" height="16" xmlns="http://www.w3.org/2000/svg" shape-rendering="crispEdges">
<rect x="6" y="0" width="3" height="11" fill="#D77BBA" />
<rect x="9" y="1" width="1" height="11" fill="#D77BBA" />
<rect x="10" y="2" width="4" height="9" fill="#D77BBA" />
<rect x="5" y="3" width="1" height="7" fill="#D77BBA" />
<rect x="14" y="3" width="2" height="3" fill="#D77BBA" />
<rect x="2" y="4" width="3" height="2" fill="#77D1E4" />
<rect x="2" y="6" width="2" height="2" fill="#77D1E4" />
<rect x="4" y="6" width="1" height="4" fill="#D77BBA" />
<rect x="14" y="6" width="1" height="1" fill="#D77BBA" />
<rect x="1" y="7" width="1" height="7" fill="#77D1E4" />
<rect x="2" y="8" width="1" height="6" fill="#77D1E4" />
<rect x="3" y="8" width="1" height="2" fill="#D77BBA" />
<rect x="3" y="10" width="3" height="5" fill="#77D1E4" />
<rect x="6" y="11" width="3" height="4" fill="#77D1E4" />
<rect x="10" y="11" width="3" height="1" fill="#D77BBA" />
<rect x="0" y="12" width="1" height="2" fill="#77D1E4" />
<rect x="9" y="12" width="2" height="2" fill="#77D1E4" />
<rect x="11" y="12" width="2" height="1" fill="#D77BBA" />
<rect x="9" y="14" width="1" height="2" fill="#77D1E4" />
<rect x="8" y="15" width="1" height="1" fill="#77D1E4" />
</svg>